<?xml version="1.0" encoding="utf-8"?>
<!-- Generator: Adobe Illustrator 23.0.6, SVG Export Plug-In . SVG Version: 6.00 Build 0)  -->
<svg version="1.1" id="Layer_1" xmlns="http://www.w3.org/2000/svg" xmlns:xlink="http://www.w3.org/1999/xlink" x="0px" y="0px"
	 viewBox="0 0 1920 1080" style="enable-background:new 0 0 1920 1080;" xml:space="preserve">
<style type="text/css">
	.st0{fill:#172430;}
	.st1{enable-background:new    ;}
	.st2{fill:#FFFFFF;}
	.st3{fill:#339933;}
	.st4{fill:#255477;}
	.st5{fill:none;stroke:#FFFFFF;stroke-width:2;stroke-miterlimit:10;}
	.st6{fill:none;stroke:#FFFFFF;stroke-miterlimit:10;}
	.st7{fill:none;stroke:#F7931E;stroke-width:2;stroke-linecap:round;stroke-miterlimit:10;}
</style>
<title>Peta GFW Rev</title>
<rect id="rect5538" class="st0" width="1920" height="1080"/>
<g class="st1">
	<path class="st2" d="M508.4,225.5c0,1.5-0.9,2.6-2.4,3.2c1.9,0.6,3.1,1.9,3.1,3.8c0,2.6-2.1,4.2-5.4,4.2s-5.4-1.6-5.4-4.2
		c0-1.9,1.2-3.2,3.1-3.8c-1.5-0.6-2.5-1.7-2.5-3.3c0-2.2,1.8-3.6,4.7-3.6C506.6,221.8,508.4,223.1,508.4,225.5z M499.9,232.3
		c0,1.9,1.4,3,3.8,3c2.4,0,3.8-1.1,3.8-2.9c0-1.8-1.4-2.9-3.8-2.9C501.3,229.4,499.9,230.5,499.9,232.3z M500.4,225.6
		c0,1.6,1.2,2.5,3.3,2.5s3.3-0.9,3.3-2.5c0-1.6-1.2-2.5-3.3-2.5S500.4,224,500.4,225.6z"/>
</g>
<g class="st1">
	<path class="st2" d="M522.5,229.2c0,4.8-2,7.4-5.4,7.4c-3.5,0-5.5-2.6-5.5-7.4c0-4.7,2-7.4,5.5-7.4
		C520.6,221.8,522.5,224.4,522.5,229.2z M513.3,229.2c0,4,1.3,6,3.8,6c2.5,0,3.8-2,3.8-6c0-4-1.3-6-3.8-6
		C514.6,223.2,513.3,225.2,513.3,229.2z"/>
</g>
<g class="st1">
	<path class="st2" d="M526.9,235.6c0,0.6-0.4,1.1-1,1.1c-0.6,0-1-0.5-1-1.1c0-0.6,0.4-1.1,1-1.1C526.4,234.6,526.9,235,526.9,235.6z
		"/>
</g>
<g class="st1">
	<path class="st2" d="M540.2,229.2c0,4.8-2,7.4-5.4,7.4c-3.5,0-5.5-2.6-5.5-7.4c0-4.7,2-7.4,5.5-7.4
		C538.2,221.8,540.2,224.4,540.2,229.2z M531,229.2c0,4,1.3,6,3.8,6c2.5,0,3.8-2,3.8-6c0-4-1.3-6-3.8-6
		C532.2,223.2,531,225.2,531,229.2z"/>
	<path class="st2" d="M553.1,229.2c0,4.8-2,7.4-5.4,7.4c-3.5,0-5.5-2.6-5.5-7.4c0-4.7,2-7.4,5.5-7.4
		C551.2,221.8,553.1,224.4,553.1,229.2z M543.9,229.2c0,4,1.3,6,3.8,6c2.5,0,3.8-2,3.8-6c0-4-1.3-6-3.8-6
		C545.2,223.2,543.9,225.2,543.9,229.2z"/>
</g>
<g class="st1">
	<path class="st2" d="M567.4,229.2c0,4.8-2,7.4-5.4,7.4c-3.5,0-5.5-2.6-5.5-7.4c0-4.7,2-7.4,5.5-7.4
		C565.4,221.8,567.4,224.4,567.4,229.2z M558.2,229.2c0,4,1.3,6,3.8,6c2.5,0,3.8-2,3.8-6c0-4-1.3-6-3.8-6
		C559.5,223.2,558.2,225.2,558.2,229.2z"/>
</g>
<g class="st1">
	<path class="st2" d="M506.3,665.4c0-1.4-1.2-2.3-3.1-2.3c-1.4,0-3,0.7-4.2,1.8l-0.7-1.3c1.5-1.3,3.3-2,5.1-2c2.8,0,4.6,1.4,4.6,3.6
		c0,1.4-1.1,3.1-2.7,4.8l-4.8,4.9h8.4v1.6h-10.5V675l5.8-6C505.4,667.8,506.3,666.4,506.3,665.4z"/>
</g>
<g class="st1">
	<path class="st2" d="M522.2,669c0,4.8-2,7.4-5.4,7.4c-3.5,0-5.5-2.6-5.5-7.4c0-4.7,2-7.4,5.5-7.4
		C520.2,661.6,522.2,664.3,522.2,669z M512.9,669c0,4,1.3,6,3.8,6c2.5,0,3.8-2,3.8-6c0-4-1.3-6-3.8-6C514.2,663,512.9,665,512.9,669
		z"/>
</g>
<g class="st1">
	<path class="st2" d="M526.5,675.5c0,0.6-0.4,1.1-1,1.1c-0.6,0-1-0.5-1-1.1c0-0.6,0.4-1.1,1-1.1
		C526.1,674.4,526.5,674.9,526.5,675.5z"/>
</g>
<g class="st1">
	<path class="st2" d="M539.8,669c0,4.8-2,7.4-5.4,7.4c-3.5,0-5.5-2.6-5.5-7.4c0-4.7,2-7.4,5.5-7.4
		C537.9,661.6,539.8,664.3,539.8,669z M530.6,669c0,4,1.3,6,3.8,6c2.5,0,3.8-2,3.8-6c0-4-1.3-6-3.8-6C531.9,663,530.6,665,530.6,669
		z"/>
	<path class="st2" d="M552.8,669c0,4.8-2,7.4-5.4,7.4c-3.5,0-5.5-2.6-5.5-7.4c0-4.7,2-7.4,5.5-7.4
		C550.8,661.6,552.8,664.3,552.8,669z M543.5,669c0,4,1.3,6,3.8,6c2.5,0,3.8-2,3.8-6c0-4-1.3-6-3.8-6C544.8,663,543.5,665,543.5,669
		z"/>
</g>
<g class="st1">
	<path class="st2" d="M567,669c0,4.8-2,7.4-5.4,7.4c-3.5,0-5.5-2.6-5.5-7.4c0-4.7,2-7.4,5.5-7.4C565.1,661.6,567,664.3,567,669z
		 M557.8,669c0,4,1.3,6,3.8,6c2.5,0,3.8-2,3.8-6c0-4-1.3-6-3.8-6C559.1,663,557.8,665,557.8,669z"/>
</g>
<g class="st1">
	<path class="st2" d="M505.3,527.9l-5.4,9.3h5.6v-3.9h1.6v3.9h2.3v1.6H507v3.9h-1.6v-3.9h-7.4v-1.3l5.5-9.5H505.3z"/>
</g>
<g class="st1">
	<path class="st2" d="M522.7,535.3c0,4.8-2,7.4-5.4,7.4c-3.5,0-5.5-2.6-5.5-7.4c0-4.7,2-7.4,5.5-7.4
		C520.7,527.9,522.7,530.5,522.7,535.3z M513.4,535.3c0,4,1.3,6,3.8,6c2.5,0,3.8-2,3.8-6c0-4-1.3-6-3.8-6
		C514.7,529.3,513.4,531.3,513.4,535.3z"/>
</g>
<g class="st1">
	<path class="st2" d="M527,541.8c0,0.6-0.4,1.1-1,1.1c-0.6,0-1-0.5-1-1.1c0-0.6,0.4-1.1,1-1.1C526.6,540.7,527,541.1,527,541.8z"/>
</g>
<g class="st1">
	<path class="st2" d="M540.3,535.3c0,4.8-2,7.4-5.4,7.4c-3.5,0-5.5-2.6-5.5-7.4c0-4.7,2-7.4,5.5-7.4
		C538.4,527.9,540.3,530.5,540.3,535.3z M531.1,535.3c0,4,1.3,6,3.8,6c2.5,0,3.8-2,3.8-6c0-4-1.3-6-3.8-6
		C532.4,529.3,531.1,531.3,531.1,535.3z"/>
	<path class="st2" d="M553.3,535.3c0,4.8-2,7.4-5.4,7.4c-3.5,0-5.5-2.6-5.5-7.4c0-4.7,2-7.4,5.5-7.4
		C551.3,527.9,553.3,530.5,553.3,535.3z M544,535.3c0,4,1.3,6,3.8,6c2.5,0,3.8-2,3.8-6c0-4-1.3-6-3.8-6
		C545.3,529.3,544,531.3,544,535.3z"/>
</g>
<g class="st1">
	<path class="st2" d="M567.5,535.3c0,4.8-2,7.4-5.4,7.4c-3.5,0-5.5-2.6-5.5-7.4c0-4.7,2-7.4,5.5-7.4
		C565.6,527.9,567.5,530.5,567.5,535.3z M558.3,535.3c0,4,1.3,6,3.8,6c2.5,0,3.8-2,3.8-6c0-4-1.3-6-3.8-6
		C559.6,529.3,558.3,531.3,558.3,535.3z"/>
</g>
<g class="st1">
	<path class="st2" d="M504.6,368.3c-3.2,0-4.8,2.6-4.6,6.7c0.7-1.8,2.2-2.8,4.5-2.8c2.9,0,4.7,1.8,4.7,4.6c0,3-2,4.8-5,4.8
		c-3.6,0-5.8-2.6-5.8-7.1c0-4.7,2.4-7.8,6.1-7.8c1.4,0,3,0.4,4.2,1l-0.7,1.3C507.1,368.7,505.8,368.3,504.6,368.3z M500.5,377
		c0,1.4,1.1,3.3,3.7,3.3c2.1,0,3.6-1.3,3.6-3.4c0-2-1.3-3.2-3.4-3.2C501.9,373.6,500.5,375.2,500.5,377z"/>
</g>
<g class="st1">
	<path class="st2" d="M522.5,374.3c0,4.8-2,7.4-5.4,7.4c-3.5,0-5.5-2.6-5.5-7.4c0-4.7,2-7.4,5.5-7.4
		C520.6,366.9,522.5,369.6,522.5,374.3z M513.3,374.3c0,4,1.3,6,3.8,6c2.5,0,3.8-2,3.8-6c0-4-1.3-6-3.8-6
		C514.6,368.3,513.3,370.3,513.3,374.3z"/>
</g>
<g class="st1">
	<path class="st2" d="M526.9,380.8c0,0.6-0.4,1.1-1,1.1c-0.6,0-1-0.5-1-1.1c0-0.6,0.4-1.1,1-1.1
		C526.4,379.7,526.9,380.2,526.9,380.8z"/>
</g>
<g class="st1">
	<path class="st2" d="M540.2,374.3c0,4.8-2,7.4-5.4,7.4c-3.5,0-5.5-2.6-5.5-7.4c0-4.7,2-7.4,5.5-7.4
		C538.2,366.9,540.2,369.6,540.2,374.3z M531,374.3c0,4,1.3,6,3.8,6c2.5,0,3.8-2,3.8-6c0-4-1.3-6-3.8-6
		C532.2,368.3,531,370.3,531,374.3z"/>
	<path class="st2" d="M553.1,374.3c0,4.8-2,7.4-5.4,7.4c-3.5,0-5.5-2.6-5.5-7.4c0-4.7,2-7.4,5.5-7.4
		C551.2,366.9,553.1,369.6,553.1,374.3z M543.9,374.3c0,4,1.3,6,3.8,6c2.5,0,3.8-2,3.8-6c0-4-1.3-6-3.8-6
		C545.2,368.3,543.9,370.3,543.9,374.3z"/>
</g>
<g class="st1">
	<path class="st2" d="M567.4,374.3c0,4.8-2,7.4-5.4,7.4c-3.5,0-5.5-2.6-5.5-7.4c0-4.7,2-7.4,5.5-7.4
		C565.4,366.9,567.4,369.6,567.4,374.3z M558.2,374.3c0,4,1.3,6,3.8,6c2.5,0,3.8-2,3.8-6c0-4-1.3-6-3.8-6
		C559.5,368.3,558.2,370.3,558.2,374.3z"/>
</g>
<g class="st1">
	<path class="st2" d="M646.9,852.1v-1.1l1.4-1.4c3.5-3.3,5.1-5.1,5.1-7.1c0-1.4-0.7-2.7-2.7-2.7c-1.2,0-2.3,0.6-2.9,1.2l-0.6-1.3
		c0.9-0.8,2.3-1.4,3.9-1.4c2.9,0,4.2,2,4.2,4c0,2.5-1.8,4.6-4.7,7.3l-1.1,1v0h6.1v1.5H646.9z"/>
</g>
<g class="st1">
	<path class="st2" d="M666.8,845.1c0,4.6-1.7,7.2-4.7,7.2c-2.7,0-4.5-2.5-4.5-7c0-4.6,2-7.1,4.7-7.1
		C665.1,838.2,666.8,840.8,666.8,845.1z M659.4,845.3c0,3.5,1.1,5.6,2.8,5.6c1.9,0,2.8-2.2,2.8-5.7c0-3.4-0.9-5.6-2.8-5.6
		C660.5,839.6,659.4,841.6,659.4,845.3z"/>
</g>
<g class="st1">
	<path class="st2" d="M671.9,840.1L671.9,840.1l-2.4,1.3l-0.4-1.4l3-1.6h1.6v13.6h-1.8V840.1z"/>
</g>
<g class="st1">
	<path class="st2" d="M678,849.9c0.5,0.3,1.7,0.9,3,0.9c2.4,0,3.1-1.5,3.1-2.6c0-1.9-1.7-2.7-3.5-2.7h-1V844h1c1.3,0,3-0.7,3-2.3
		c0-1.1-0.7-2.1-2.4-2.1c-1.1,0-2.1,0.5-2.7,0.9l-0.5-1.3c0.7-0.5,2.1-1.1,3.6-1.1c2.7,0,3.9,1.6,3.9,3.3c0,1.4-0.8,2.6-2.5,3.2v0
		c1.7,0.3,3,1.6,3,3.5c0,2.2-1.7,4.1-5,4.1c-1.5,0-2.9-0.5-3.5-0.9L678,849.9z"/>
</g>
<g class="st1">
	<path class="st2" d="M735.6,852.1v-1.1l1.4-1.4c3.5-3.3,5.1-5.1,5.1-7.1c0-1.4-0.7-2.7-2.7-2.7c-1.2,0-2.3,0.6-2.9,1.2l-0.6-1.3
		c0.9-0.8,2.3-1.4,3.9-1.4c2.9,0,4.2,2,4.2,4c0,2.5-1.8,4.6-4.7,7.3l-1.1,1v0h6.1v1.5H735.6z"/>
</g>
<g class="st1">
	<path class="st2" d="M755.5,845.1c0,4.6-1.7,7.2-4.7,7.2c-2.7,0-4.5-2.5-4.5-7c0-4.6,2-7.1,4.7-7.1
		C753.8,838.2,755.5,840.8,755.5,845.1z M748.1,845.3c0,3.5,1.1,5.6,2.8,5.6c1.9,0,2.8-2.2,2.8-5.7c0-3.4-0.9-5.6-2.8-5.6
		C749.2,839.6,748.1,841.6,748.1,845.3z"/>
</g>
<g class="st1">
	<path class="st2" d="M760.6,840.1L760.6,840.1l-2.4,1.3l-0.4-1.4l3-1.6h1.6v13.6h-1.8V840.1z"/>
</g>
<g class="st1">
	<path class="st2" d="M772.2,852.1v-3.7h-6.3v-1.2l6.1-8.7h2v8.5h1.9v1.4h-1.9v3.7H772.2z M772.2,846.9v-4.6c0-0.7,0-1.4,0.1-2.1
		h-0.1c-0.4,0.8-0.8,1.4-1.1,2l-3.3,4.6v0H772.2z"/>
</g>
<polyline class="st3" points="715.8,824.4 714.8,631.3 722,424.1 731.3,398.3 741.2,341.7 749,346.9 758.8,400.9 767.1,336.6 
	777,346.9 795.1,292.8 802.9,305.7 820,806.3 829.9,815.4 839.7,802.5 848,810.2 857.4,801.2 865.1,805.1 875,824.4 "/>
<polyline class="st4" points="622.4,825.4 631.6,825.4 641.7,818.8 655.6,808.6 664.9,805.2 675,796.2 681.3,801.5 691,788.2 
	698.2,786.7 708.2,782 717.1,800.9 724.7,784.2 734.3,796.2 742.8,784.3 750.3,799.3 767.2,755.5 776,774.3 785.3,740 792.4,789.7 
	800.4,793.8 809.7,822.6 817.3,825.6 841.3,825.6 883.8,825 896,825.3 917,823.8 930.9,825.4 943.1,825.3 949.5,824.7 957,825.3 
	988.2,825.6 1001.2,824.5 1013.4,825.3 1024.4,824.8 1034.1,825.3 1072.4,825.1 1090.9,823.4 1100.6,825 1123.3,825.1 1151.9,825.3 
	1159.5,824.7 1172.1,825.3 1201.2,825.1 "/>
<line class="st5" x1="599.4" y1="825" x2="1298.9" y2="825"/>
<line class="st6" x1="599.4" y1="676.7" x2="1298.9" y2="676.7"/>
<line class="st6" x1="599.4" y1="542.1" x2="1298.9" y2="542.1"/>
<line class="st6" x1="599.4" y1="383.8" x2="1298.9" y2="383.8"/>
<line class="st6" x1="599.4" y1="238.9" x2="1298.9" y2="238.9"/>
<line class="st6" x1="632" y1="830.8" x2="632" y2="861.5"/>
<line class="st6" x1="716.9" y1="830.8" x2="716.9" y2="861.5"/>
<line class="st6" x1="809.8" y1="830.8" x2="809.8" y2="861.5"/>
<line class="st6" x1="901.9" y1="830.8" x2="901.9" y2="861.5"/>
<line class="st6" x1="994" y1="830.8" x2="994" y2="861.5"/>
<line class="st6" x1="1086.1" y1="830.8" x2="1086.1" y2="861.5"/>
<line class="st6" x1="1178.2" y1="830.8" x2="1178.2" y2="861.5"/>
<line class="st6" x1="1270.3" y1="830.8" x2="1270.3" y2="861.5"/>
<g class="st1">
	<path class="st2" d="M829.1,852.1v-1.1l1.4-1.4c3.5-3.3,5.1-5.1,5.1-7.1c0-1.4-0.7-2.7-2.7-2.7c-1.2,0-2.3,0.6-2.9,1.2l-0.6-1.3
		c0.9-0.8,2.3-1.4,3.9-1.4c2.9,0,4.2,2,4.2,4c0,2.5-1.8,4.6-4.7,7.3l-1.1,1v0h6.1v1.5H829.1z"/>
</g>
<g class="st1">
	<path class="st2" d="M849,845.1c0,4.6-1.7,7.2-4.7,7.2c-2.7,0-4.5-2.5-4.5-7c0-4.6,2-7.1,4.7-7.1C847.3,838.2,849,840.8,849,845.1z
		 M841.6,845.3c0,3.5,1.1,5.6,2.8,5.6c1.9,0,2.8-2.2,2.8-5.7c0-3.4-0.9-5.6-2.8-5.6C842.7,839.6,841.6,841.6,841.6,845.3z"/>
</g>
<g class="st1">
	<path class="st2" d="M854.1,840.2L854.1,840.2l-2.4,1.3l-0.4-1.4l3-1.6h1.6v13.6h-1.8V840.2z"/>
</g>
<g class="st1">
	<path class="st2" d="M868,840h-5.2l-0.5,3.5c0.3,0,0.6-0.1,1.1-0.1c1,0,2.1,0.2,2.9,0.7c1.1,0.6,2,1.8,2,3.5c0,2.7-2.1,4.7-5.1,4.7
		c-1.5,0-2.8-0.4-3.4-0.8l0.5-1.4c0.6,0.3,1.7,0.8,2.9,0.8c1.7,0,3.2-1.1,3.2-3c0-1.8-1.2-3-3.9-3c-0.8,0-1.4,0.1-1.9,0.1l0.9-6.6
		h6.5V840z"/>
</g>
<g class="st1">
	<path class="st2" d="M919.2,852.1v-1.1l1.4-1.4c3.5-3.3,5.1-5.1,5.1-7.1c0-1.4-0.7-2.7-2.7-2.7c-1.2,0-2.3,0.6-2.9,1.2l-0.6-1.3
		c0.9-0.8,2.3-1.4,3.9-1.4c2.9,0,4.2,2,4.2,4c0,2.5-1.8,4.6-4.7,7.3l-1.1,1v0h6.1v1.5H919.2z"/>
</g>
<g class="st1">
	<path class="st2" d="M939.1,845.1c0,4.6-1.7,7.2-4.7,7.2c-2.7,0-4.5-2.5-4.5-7c0-4.6,2-7.1,4.7-7.1
		C937.4,838.2,939.1,840.8,939.1,845.1z M931.7,845.3c0,3.5,1.1,5.6,2.8,5.6c1.9,0,2.8-2.2,2.8-5.7c0-3.4-0.9-5.6-2.8-5.6
		C932.8,839.6,931.7,841.6,931.7,845.3z"/>
</g>
<g class="st1">
	<path class="st2" d="M944.2,840.2L944.2,840.2l-2.4,1.3l-0.4-1.4l3-1.6h1.6v13.6h-1.8V840.2z"/>
</g>
<g class="st1">
	<path class="st2" d="M958.1,839.7c-0.4,0-0.9,0-1.4,0.1c-2.9,0.5-4.4,2.6-4.7,4.8h0.1c0.7-0.9,1.8-1.6,3.3-1.6
		c2.4,0,4.1,1.7,4.1,4.4c0,2.5-1.7,4.8-4.5,4.8c-2.9,0-4.8-2.3-4.8-5.8c0-2.7,1-4.8,2.3-6.2c1.1-1.1,2.6-1.8,4.4-2
		c0.5-0.1,1-0.1,1.3-0.1V839.7z M957.5,847.6c0-2-1.1-3.1-2.8-3.1c-1.1,0-2.1,0.7-2.6,1.7c-0.1,0.2-0.2,0.5-0.2,0.8
		c0,2.2,1.1,3.9,3,3.9C956.5,850.9,957.5,849.6,957.5,847.6z"/>
</g>
<g class="st1">
	<path class="st2" d="M1010.5,852.1v-1.1l1.4-1.4c3.5-3.3,5.1-5.1,5.1-7.1c0-1.4-0.7-2.7-2.7-2.7c-1.2,0-2.3,0.6-2.9,1.2l-0.6-1.3
		c0.9-0.8,2.3-1.4,3.9-1.4c2.9,0,4.2,2,4.2,4c0,2.5-1.8,4.6-4.7,7.3l-1.1,1v0h6.1v1.5H1010.5z"/>
</g>
<g class="st1">
	<path class="st2" d="M1030.4,845.1c0,4.6-1.7,7.2-4.7,7.2c-2.7,0-4.5-2.5-4.5-7c0-4.6,2-7.1,4.7-7.1
		C1028.7,838.2,1030.4,840.8,1030.4,845.1z M1023,845.3c0,3.5,1.1,5.6,2.8,5.6c1.9,0,2.8-2.2,2.8-5.7c0-3.4-0.9-5.6-2.8-5.6
		C1024.1,839.6,1023,841.6,1023,845.3z"/>
</g>
<g class="st1">
	<path class="st2" d="M1035.5,840.2L1035.5,840.2l-2.4,1.3l-0.4-1.4l3-1.6h1.6v13.6h-1.8V840.2z"/>
</g>
<g class="st1">
	<path class="st2" d="M1049.8,838.4v1.2l-5.9,12.4h-1.9l5.9-12.1v0h-6.7v-1.5H1049.8z"/>
</g>
<g class="st1">
	<path class="st2" d="M1102,852.1v-1.1l1.4-1.4c3.5-3.3,5.1-5.1,5.1-7.1c0-1.4-0.7-2.7-2.7-2.7c-1.2,0-2.3,0.6-2.9,1.2l-0.6-1.3
		c0.9-0.8,2.3-1.4,3.9-1.4c2.9,0,4.2,2,4.2,4c0,2.5-1.8,4.6-4.7,7.3l-1.1,1v0h6.1v1.5H1102z"/>
</g>
<g class="st1">
	<path class="st2" d="M1121.9,845.1c0,4.6-1.7,7.2-4.7,7.2c-2.7,0-4.5-2.5-4.5-7c0-4.6,2-7.1,4.7-7.1
		C1120.3,838.2,1121.9,840.8,1121.9,845.1z M1114.5,845.3c0,3.5,1.1,5.6,2.8,5.6c1.9,0,2.8-2.2,2.8-5.7c0-3.4-0.9-5.6-2.8-5.6
		C1115.7,839.6,1114.5,841.6,1114.5,845.3z"/>
</g>
<g class="st1">
	<path class="st2" d="M1127,840.2L1127,840.2l-2.4,1.3l-0.4-1.4l3-1.6h1.6v13.6h-1.8V840.2z"/>
</g>
<g class="st1">
	<path class="st2" d="M1132.9,848.6c0-1.7,1-2.9,2.7-3.7l0-0.1c-1.5-0.7-2.2-1.9-2.2-3.1c0-2.2,1.8-3.6,4.2-3.6c2.6,0,4,1.7,4,3.4
		c0,1.2-0.6,2.4-2.2,3.2v0.1c1.7,0.7,2.8,1.9,2.8,3.5c0,2.4-2,4-4.6,4C1134.6,852.3,1132.9,850.6,1132.9,848.6z M1140.2,848.5
		c0-1.7-1.2-2.5-3-3c-1.6,0.5-2.5,1.5-2.5,2.8c-0.1,1.4,1,2.6,2.7,2.6C1139.2,851,1140.2,849.9,1140.2,848.5z M1135.2,841.7
		c0,1.4,1,2.1,2.6,2.5c1.2-0.4,2.1-1.2,2.1-2.5c0-1.1-0.7-2.2-2.3-2.2C1136,839.5,1135.2,840.5,1135.2,841.7z"/>
</g>
<g class="st1">
	<path class="st2" d="M1191.9,852.1v-1.1l1.4-1.4c3.5-3.3,5.1-5.1,5.1-7.1c0-1.4-0.7-2.7-2.7-2.7c-1.2,0-2.3,0.6-2.9,1.2l-0.6-1.3
		c0.9-0.8,2.3-1.4,3.9-1.4c2.9,0,4.2,2,4.2,4c0,2.5-1.8,4.6-4.7,7.3l-1.1,1v0h6.1v1.5H1191.9z"/>
</g>
<g class="st1">
	<path class="st2" d="M1211.8,845.1c0,4.6-1.7,7.2-4.7,7.2c-2.7,0-4.5-2.5-4.5-7c0-4.6,2-7.1,4.7-7.1
		C1210.2,838.2,1211.8,840.8,1211.8,845.1z M1204.4,845.3c0,3.5,1.1,5.6,2.8,5.6c1.9,0,2.8-2.2,2.8-5.7c0-3.4-0.9-5.6-2.8-5.6
		C1205.6,839.6,1204.4,841.6,1204.4,845.3z"/>
</g>
<g class="st1">
	<path class="st2" d="M1217,840.2L1217,840.2l-2.4,1.3l-0.4-1.4l3-1.6h1.6v13.6h-1.8V840.2z"/>
</g>
<g class="st1">
	<path class="st2" d="M1223.8,850.8c0.4,0,0.9,0,1.5-0.1c1.1-0.1,2.1-0.6,2.9-1.3c0.9-0.8,1.6-2,1.8-3.6h-0.1
		c-0.8,0.9-1.8,1.5-3.2,1.5c-2.5,0-4-1.8-4-4.2c0-2.6,1.9-4.9,4.7-4.9c2.8,0,4.5,2.3,4.5,5.8c0,3-1,5.1-2.4,6.4c-1,1-2.5,1.7-4,1.8
		c-0.7,0.1-1.3,0.1-1.7,0.1V850.8z M1224.5,842.9c0,1.7,1,2.9,2.6,2.9c1.2,0,2.2-0.6,2.7-1.4c0.1-0.2,0.2-0.4,0.2-0.7
		c0-2.3-0.9-4.1-2.8-4.1C1225.6,839.6,1224.5,841,1224.5,842.9z"/>
</g>
<g class="st1">
	<path class="st2" d="M519,164.6h-10.9l-1.8,4.5h-6.8l10.8-25.2h6.8l10.6,25.2h-7L519,164.6z M517,159.5l-3.5-9l-3.5,9H517z"/>
</g>
<g class="st1">
	<path class="st2" d="M538.2,161.7l-2,2.1v5.3h-6.4v-26.7h6.4v13.8l6.2-6.6h7.3l-7.1,7.5l7.3,12h-7.6L538.2,161.7z"/>
</g>
<g class="st1">
	<path class="st2" d="M565.8,168c-1.4,0.8-3.3,1.3-5.3,1.3c-3.8,0-6.5-2.2-6.5-6.2v-8.4h-2.7v-4.2h2.7v-5.4h6.4v5.4h5v4.2h-5v7.3
		c0,1.4,0.6,2.1,1.8,2.1c0.6,0,1.5-0.3,2.4-0.6L565.8,168z"/>
</g>
<g class="st1">
	<path class="st2" d="M574.8,149.6V169h-6.4v-19.5H574.8z M574.6,144.1c0,1.7-1.2,2.9-2.9,2.9c-1.7,0-2.9-1.2-2.9-2.9
		c0-1.7,1.2-3,2.9-3C573.4,141.1,574.6,142.4,574.6,144.1z"/>
</g>
<g class="st1">
	<path class="st2" d="M583.5,149.6l4.1,13.5l4.1-13.5h6.4l-7.3,19.5h-6.6l-7.3-19.5H583.5z"/>
</g>
<g class="st1">
	<path class="st2" d="M606.5,149.6V169h-6.4v-19.5H606.5z M606.3,144.1c0,1.7-1.2,2.9-2.9,2.9s-2.9-1.2-2.9-2.9c0-1.7,1.2-3,2.9-3
		S606.3,142.4,606.3,144.1z"/>
</g>
<g class="st1">
	<path class="st2" d="M623.8,168c-1.4,0.8-3.3,1.3-5.3,1.3c-3.8,0-6.5-2.2-6.5-6.2v-8.4h-2.7v-4.2h2.7v-5.4h6.4v5.4h5v4.2h-5v7.3
		c0,1.4,0.6,2.1,1.8,2.1c0.6,0,1.5-0.3,2.4-0.6L623.8,168z"/>
</g>
<g class="st1">
	<path class="st2" d="M644.1,156.4V169h-6.3v-2.2c-1.3,1.6-3.2,2.5-5.9,2.5c-4.2,0-6.7-2.5-6.7-6.1c0-3.7,2.6-5.8,7.5-5.9h5.1v-0.2
		c0-1.8-1.3-2.9-3.7-2.9c-1.6,0-3.7,0.5-5.8,1.5l-1.8-4.3c3.1-1.4,5.9-2.1,9.1-2.1C641,149.3,644.1,151.9,644.1,156.4z M637.8,162.4
		v-1.7H634c-1.8,0-2.7,0.6-2.7,2c0,1.3,1,2.2,2.6,2.2C635.9,165,637.4,163.9,637.8,162.4z"/>
</g>
<g class="st1">
	<path class="st2" d="M654.8,153.7c-1.1,0-1.8,0.4-1.8,1.2c0,2.6,10.2,1.3,10.2,8.1c0,4-3.5,6.3-8.2,6.3c-3.3,0-6.4-0.9-8.8-2.8
		l2-4.1c2.2,1.5,4.8,2.4,6.9,2.4c1.2,0,2.1-0.4,2.1-1.2c0-2.7-10-1.3-10-8.1c0-4.1,3.4-6.3,8-6.3c2.8,0,5.7,0.8,8.1,2.3l-2.2,4.2
		C658.6,154.5,656.4,153.7,654.8,153.7z"/>
</g>
<g class="st1">
	<path class="st2" d="M686,161.7l-2,2.1v5.3h-6.4v-26.7h6.4v13.8l6.2-6.6h7.3l-7.1,7.5l7.3,12h-7.6L686,161.7z"/>
</g>
<g class="st1">
	<path class="st2" d="M717.6,156.4V169h-6.3v-2.2c-1.3,1.6-3.2,2.5-5.9,2.5c-4.2,0-6.7-2.5-6.7-6.1c0-3.7,2.6-5.8,7.5-5.9h5.1v-0.2
		c0-1.8-1.3-2.9-3.7-2.9c-1.6,0-3.7,0.5-5.8,1.5l-1.8-4.3c3.1-1.4,5.9-2.1,9.1-2.1C714.4,149.3,717.6,151.9,717.6,156.4z
		 M711.3,162.4v-1.7h-3.8c-1.8,0-2.7,0.6-2.7,2c0,1.3,1,2.2,2.6,2.2C709.3,165,710.9,163.9,711.3,162.4z"/>
</g>
<g class="st1">
	<path class="st2" d="M742.9,159.4c0,5.9-3.5,9.9-8.9,9.9c-2.5,0-4.5-1-5.9-2.7v9.5h-6.4v-26.5h6.4v2.5c1.4-1.8,3.3-2.7,5.7-2.7
		C739.3,149.3,742.9,153.3,742.9,159.4z M736.5,159.2c0-2.9-1.7-4.9-4.2-4.9c-2.4,0-4.1,2-4.1,4.9c0,2.9,1.7,4.8,4.1,4.8
		C734.8,164.1,736.5,162.1,736.5,159.2z"/>
</g>
<g class="st1">
	<path class="st2" d="M763.5,156.4V169h-6.3v-2.2c-1.3,1.6-3.2,2.5-5.9,2.5c-4.2,0-6.7-2.5-6.7-6.1c0-3.7,2.6-5.8,7.5-5.9h5.1v-0.2
		c0-1.8-1.3-2.9-3.7-2.9c-1.6,0-3.7,0.5-5.8,1.5l-1.8-4.3c3.1-1.4,5.9-2.1,9.1-2.1C760.3,149.3,763.5,151.9,763.5,156.4z
		 M757.2,162.4v-1.7h-3.8c-1.8,0-2.7,0.6-2.7,2c0,1.3,1,2.2,2.6,2.2C755.2,165,756.8,163.9,757.2,162.4z"/>
</g>
<g class="st1">
	<path class="st2" d="M774.1,142.3V169h-6.4v-26.7H774.1z"/>
</g>
<g class="st1">
	<path class="st2" d="M796.3,149.6V169h-6.4v-19.5H796.3z M796,144.1c0,1.7-1.2,2.9-2.9,2.9s-2.9-1.2-2.9-2.9c0-1.7,1.2-3,2.9-3
		S796,142.4,796,144.1z"/>
</g>
<g class="st1">
	<path class="st2" d="M809.4,161.7l-2,2.1v5.3H801v-26.7h6.4v13.8l6.2-6.6h7.3l-7.1,7.5l7.3,12h-7.6L809.4,161.7z"/>
</g>
<g class="st1">
	<path class="st2" d="M841,156.4V169h-6.3v-2.2c-1.3,1.6-3.2,2.5-5.9,2.5c-4.2,0-6.7-2.5-6.7-6.1c0-3.7,2.6-5.8,7.5-5.9h5.1v-0.2
		c0-1.8-1.3-2.9-3.7-2.9c-1.6,0-3.7,0.5-5.8,1.5l-1.8-4.3c3.1-1.4,5.9-2.1,9.1-2.1C837.8,149.3,840.9,151.9,841,156.4z M834.7,162.4
		v-1.7h-3.8c-1.8,0-2.7,0.6-2.7,2c0,1.3,1,2.2,2.6,2.2C832.7,165,834.3,163.9,834.7,162.4z"/>
</g>
<g class="st1">
	<path class="st2" d="M864.8,156.8V169h-6.4v-10.4c0-2.2-1.3-3.6-3.3-3.6c-2.2,0-3.6,1.5-3.8,3.7V169h-6.4v-19.5h6.4v3.2
		c1.4-2.2,3.6-3.4,6.4-3.4C862,149.3,864.8,152.2,864.8,156.8z"/>
</g>
<g class="st1">
	<path class="st2" d="M897.3,156.4V169H891v-2.2c-1.3,1.6-3.2,2.5-5.9,2.5c-4.2,0-6.7-2.5-6.7-6.1c0-3.7,2.6-5.8,7.5-5.9h5.1v-0.2
		c0-1.8-1.3-2.9-3.7-2.9c-1.6,0-3.7,0.5-5.8,1.5l-1.8-4.3c3.1-1.4,5.9-2.1,9.1-2.1C894.1,149.3,897.3,151.9,897.3,156.4z M891,162.4
		v-1.7h-3.8c-1.8,0-2.7,0.6-2.7,2c0,1.3,1,2.2,2.6,2.2C889,165,890.6,163.9,891,162.4z"/>
	<path class="st2" d="M908.4,153.7c-1.1,0-1.8,0.4-1.8,1.2c0,2.6,10.2,1.3,10.2,8.1c0,4-3.5,6.3-8.2,6.3c-3.3,0-6.4-0.9-8.8-2.8
		l2-4.1c2.2,1.5,4.8,2.4,6.9,2.4c1.2,0,2.1-0.4,2.1-1.2c0-2.7-10-1.3-10-8.1c0-4.1,3.4-6.3,8-6.3c2.8,0,5.7,0.8,8.1,2.3l-2.2,4.2
		C912.2,154.5,910,153.7,908.4,153.7z"/>
</g>
<g class="st1">
	<path class="st2" d="M925.7,149.6V169h-6.4v-19.5H925.7z M925.4,144.1c0,1.7-1.2,2.9-2.9,2.9s-2.9-1.2-2.9-2.9c0-1.7,1.2-3,2.9-3
		S925.4,142.4,925.4,144.1z"/>
</g>
<g class="st1">
	<path class="st2" d="M950.1,156.8V169h-6.4v-10.4c0-2.2-1.3-3.6-3.3-3.6c-2.2,0-3.6,1.5-3.8,3.7V169h-6.4v-19.5h6.4v3.2
		c1.4-2.2,3.6-3.4,6.4-3.4C947.3,149.3,950.1,152.2,950.1,156.8z"/>
</g>
<g class="st1">
	<path class="st2" d="M972.9,149.6v17.7c0,5.5-4.3,9-10.6,9c-3.4,0-6.5-1.1-8.7-2.5l2.2-4.4c1.8,1.2,3.9,1.9,6,1.9
		c2.9,0,4.7-1.5,4.7-3.7v-2.1c-1.3,1.7-3.1,2.6-5.5,2.6c-4.9,0-8.3-3.7-8.3-9.4c0-5.5,3.3-9.2,8.2-9.2c2.4,0,4.4,0.9,5.7,2.6v-2.4
		H972.9z M966.5,158.7c0-2.7-1.6-4.6-3.9-4.6c-2.4,0-4,1.9-4,4.6c0,2.7,1.6,4.5,4,4.5C964.9,163.3,966.5,161.4,966.5,158.7z"/>
</g>
<g class="st1">
	<path class="st2" d="M863.6,885.3l7.6,10.1v-10.1h4.1v16.8h-3.8l-7.6-10.1v10.1h-4.1v-16.8H863.6z"/>
</g>
<g class="st1">
	<path class="st2" d="M892.2,895.6c0,4-2.8,6.6-7.1,6.6s-7.1-2.6-7.1-6.6c0-4,2.8-6.6,7.1-6.6S892.2,891.7,892.2,895.6z
		 M882.3,895.7c0,1.9,1.1,3.2,2.8,3.2c1.7,0,2.8-1.3,2.8-3.2c0-1.9-1.1-3.2-2.8-3.2C883.4,892.5,882.3,893.8,882.3,895.7z"/>
	<path class="st2" d="M896.6,889.2l2.7,9l2.7-9h4.3l-4.9,13h-4.4l-4.8-13H896.6z"/>
</g>
<g class="st1">
	<path class="st2" d="M920.6,896.8h-9c0.4,1.5,1.5,2.3,3,2.3c1.1,0,2.2-0.5,3-1.3l2.2,2.2c-1.3,1.5-3.3,2.3-5.7,2.3
		c-4.2,0-6.9-2.6-6.9-6.6c0-4,2.7-6.7,6.8-6.7C918.6,889,920.9,892.1,920.6,896.8z M916.5,894.5c0-1.5-1-2.5-2.4-2.5
		c-1.4,0-2.3,1-2.6,2.5H916.5z"/>
</g>
<g class="st1">
	<path class="st2" d="M945.2,894v8.2h-4.3v-7c0-1.5-0.8-2.4-2.1-2.4c-1.5,0-2.4,1.2-2.4,2.9v6.4h-4.3v-7c0-1.5-0.8-2.4-2.1-2.4
		c-1.5,0-2.5,1.2-2.5,2.9v6.4h-4.2v-13h4.2v2.1c0.9-1.5,2.4-2.3,4.2-2.3c2.1,0,3.7,1.1,4.3,2.9c0.8-1.9,2.4-2.9,4.5-2.9
		C943.4,889,945.2,890.9,945.2,894z"/>
</g>
<g class="st1">
	<path class="st2" d="M962.7,895.7c0,4-2.4,6.6-6,6.6c-1.7,0-3-0.6-3.9-1.8v1.7h-4.3v-17.8h4.3v6.5c0.9-1.2,2.2-1.8,3.8-1.8
		C960.2,889,962.7,891.7,962.7,895.7z M958.4,895.6c0-1.9-1.1-3.2-2.8-3.2c-1.6,0-2.8,1.3-2.8,3.2c0,1.9,1.1,3.2,2.8,3.2
		C957.2,898.8,958.4,897.5,958.4,895.6z"/>
</g>
<g class="st1">
	<path class="st2" d="M977.7,896.8h-9c0.4,1.5,1.5,2.3,3,2.3c1.1,0,2.2-0.5,3-1.3l2.2,2.2c-1.3,1.5-3.3,2.3-5.7,2.3
		c-4.2,0-6.9-2.6-6.9-6.6c0-4,2.7-6.7,6.8-6.7C975.7,889,978,892.1,977.7,896.8z M973.5,894.5c0-1.5-1-2.5-2.4-2.5
		c-1.4,0-2.3,1-2.6,2.5H973.5z"/>
</g>
<g class="st1">
	<path class="st2" d="M988.7,889v3.9c-2.4-0.2-4,0.8-4.2,2.6v6.6h-4.3v-13h4.3v2.2C985.4,889.8,986.9,889,988.7,889z"/>
</g>
<g class="st1">
	<path class="st2" d="M873.5,922.3c0,3.7-2.4,5.8-6.6,5.8h-4.4v5.3h-1.9v-16.8h6.3C871.1,916.6,873.5,918.7,873.5,922.3z
		 M871.7,922.3c0-2.6-1.8-3.9-4.8-3.9h-4.3v7.9h4.3C869.9,926.3,871.7,924.9,871.7,922.3z"/>
</g>
<g class="st1">
	<path class="st2" d="M887.3,927.8H877c0.3,2.5,2.1,4.1,4.6,4.1c1.6,0,2.9-0.6,3.9-1.6l1,1.1c-1.2,1.3-3,2.1-5.1,2.1
		c-3.7,0-6.3-2.6-6.3-6.4s2.6-6.4,6.3-6.4C885.5,920.7,887.5,923.5,887.3,927.8z M885.6,926.3c-0.1-2.4-1.8-4-4.2-4
		c-2.4,0-4.2,1.6-4.4,4H885.6z"/>
</g>
<g class="st1">
	<path class="st2" d="M902.4,925.6v7.8h-1.9v-7.3c0-2.3-1.3-3.6-3.6-3.6c-2.5,0-4,1.7-4.2,4.1v6.8h-1.9v-12.6h1.9v2.8
		c0.9-1.9,2.6-2.8,4.9-2.9C900.7,920.7,902.4,922.6,902.4,925.6z"/>
</g>
<g class="st1">
	<path class="st2" d="M917.9,927.8h-10.3c0.3,2.5,2.1,4.1,4.6,4.1c1.6,0,2.9-0.6,3.9-1.6l1,1.1c-1.2,1.3-3,2.1-5.1,2.1
		c-3.7,0-6.3-2.6-6.3-6.4s2.6-6.4,6.3-6.4C916.1,920.7,918.1,923.5,917.9,927.8z M916.2,926.3c-0.1-2.4-1.8-4-4.2-4
		c-2.4,0-4.2,1.6-4.4,4H916.2z"/>
</g>
<g class="st1">
	<path class="st2" d="M927.9,920.7v1.8c-2.7,0-4.3,1.6-4.5,4.2v6.7h-1.9v-12.6h1.9v2.8C924.2,921.8,925.8,920.7,927.9,920.7z"/>
</g>
<g class="st1">
	<path class="st2" d="M938.7,933.4v-2c-1,1.4-2.6,2-4.6,2c-2.6,0-4.3-1.7-4.3-3.8c0-2.2,1.8-3.6,4.7-3.6h4.2v-0.8c0-1.8-1.2-3-3.4-3
		c-1.4,0-2.7,0.5-4,1.5l-0.8-1.3c1.6-1.1,3-1.7,5.2-1.7c3.1,0,4.8,1.7,4.9,4.3l0,8.4H938.7z M938.6,929.1v-1.5h-3.9
		c-2.1,0-3.2,0.6-3.2,2.1c0,1.4,1.1,2.3,2.9,2.3C936.5,931.9,938.2,930.9,938.6,929.1z"/>
</g>
<g class="st1">
	<path class="st2" d="M957.9,927.1c0,3.7-2.4,6.4-6,6.4c-2.3,0-4-1-4.9-2.8v7.4h-1.9v-17.3h1.9v2.7c0.9-1.8,2.7-2.8,4.9-2.8
		C955.4,920.7,957.9,923.4,957.9,927.1z M956,927.1c0-2.7-1.9-4.8-4.5-4.8c-2.7,0-4.5,2-4.5,4.8c0,2.8,1.9,4.8,4.5,4.8
		C954.1,931.8,956,929.8,956,927.1z"/>
</g>
<g class="st1">
	<path class="st2" d="M969.5,933.4v-2c-1,1.4-2.6,2-4.6,2c-2.6,0-4.3-1.7-4.3-3.8c0-2.2,1.8-3.6,4.7-3.6h4.2v-0.8c0-1.8-1.2-3-3.4-3
		c-1.4,0-2.7,0.5-4,1.5l-0.8-1.3c1.6-1.1,3-1.7,5.2-1.7c3.1,0,4.8,1.7,4.9,4.3l0,8.4H969.5z M969.4,929.1v-1.5h-3.9
		c-2.1,0-3.2,0.6-3.2,2.1c0,1.4,1.1,2.3,2.9,2.3C967.3,931.9,969,930.9,969.4,929.1z"/>
</g>
<g class="st1">
	<path class="st2" d="M987.3,925.6v7.8h-1.9v-7.3c0-2.3-1.3-3.6-3.6-3.6c-2.5,0-4,1.7-4.2,4.1v6.8h-1.9v-12.6h1.9v2.8
		c0.9-1.9,2.6-2.8,4.9-2.9C985.5,920.7,987.3,922.6,987.3,925.6z"/>
</g>
<g class="st1">
	<path class="st2" d="M1018.5,925.6v7.8h-1.9v-7.3c0-2.3-1.3-3.6-3.5-3.6c-2.6,0.1-4.1,2-4.1,4.7v6.2h-1.9v-7.3
		c0-2.3-1.3-3.6-3.5-3.6c-2.6,0.1-4.2,2-4.2,4.7v6.2h-1.8v-12.6h1.8v2.9c0.8-2,2.5-2.9,4.8-2.9c2.4,0,4,1.2,4.5,3.3
		c0.8-2.2,2.6-3.3,5-3.3C1016.8,920.7,1018.5,922.6,1018.5,925.6z"/>
	<path class="st2" d="M1034.2,927.1c0,3.8-2.7,6.4-6.4,6.4c-3.8,0-6.4-2.6-6.4-6.4c0-3.7,2.6-6.4,6.4-6.4
		C1031.5,920.7,1034.2,923.3,1034.2,927.1z M1023.3,927.1c0,2.8,1.9,4.8,4.5,4.8c2.6,0,4.5-1.9,4.5-4.8c0-2.8-1.9-4.7-4.5-4.7
		C1025.1,922.4,1023.3,924.3,1023.3,927.1z"/>
</g>
<g class="st1">
	<path class="st2" d="M1044.7,920.7v1.8c-2.7,0-4.3,1.6-4.5,4.2v6.7h-1.9v-12.6h1.9v2.8C1041,921.8,1042.5,920.7,1044.7,920.7z"/>
</g>
<g class="st1">
	<path class="st2" d="M1055.4,933.4v-2c-1,1.4-2.6,2-4.6,2c-2.6,0-4.3-1.7-4.3-3.8c0-2.2,1.8-3.6,4.7-3.6h4.2v-0.8
		c0-1.8-1.2-3-3.4-3c-1.4,0-2.7,0.5-4,1.5l-0.8-1.3c1.6-1.1,3-1.7,5.2-1.7c3.1,0,4.8,1.7,4.9,4.3l0,8.4H1055.4z M1055.4,929.1v-1.5
		h-3.9c-2.1,0-3.2,0.6-3.2,2.1c0,1.4,1.1,2.3,2.9,2.3C1053.3,931.9,1054.9,930.9,1055.4,929.1z"/>
</g>
<g class="st1">
	<path class="st2" d="M1068.2,932.6c-0.9,0.6-1.8,0.9-2.9,0.9c-1.8,0-3.2-1.1-3.2-3.6v-7.3h-1.8v-1.5h1.8v-3.3h1.8v3.3h4v1.5h-4v7
		c0,1.5,0.6,2.2,1.7,2.2c0.6,0,1.3-0.2,2-0.6L1068.2,932.6z"/>
</g>
<g class="st1">
	<path class="st2" d="M1082.7,927.1c0,3.8-2.7,6.4-6.4,6.4c-3.8,0-6.4-2.6-6.4-6.4c0-3.7,2.6-6.4,6.4-6.4
		C1080,920.7,1082.7,923.3,1082.7,927.1z M1071.7,927.1c0,2.8,1.9,4.8,4.5,4.8c2.6,0,4.5-1.9,4.5-4.8c0-2.8-1.9-4.7-4.5-4.7
		C1073.6,922.4,1071.7,924.3,1071.7,927.1z"/>
</g>
<g class="st1">
	<path class="st2" d="M1092.7,920.7v1.8c-2.7,0-4.3,1.6-4.5,4.2v6.7h-1.9v-12.6h1.9v2.8C1089.1,921.8,1090.6,920.7,1092.7,920.7z"/>
</g>
<g class="st1">
	<path class="st2" d="M1097.8,917.2c0,0.7-0.5,1.3-1.2,1.3s-1.2-0.6-1.2-1.3c0-0.7,0.5-1.3,1.2-1.3S1097.8,916.4,1097.8,917.2z
		 M1097.5,920.8v12.6h-1.8v-12.6H1097.5z"/>
</g>
<g class="st1">
	<path class="st2" d="M1113.2,920.8v12.6h-1.9v-2.9c-0.8,2-2.5,2.9-4.8,2.9c-3,0-4.7-1.9-4.7-4.9v-7.8h1.9v7.3
		c0,2.3,1.3,3.6,3.5,3.6c2.6,0,4.2-2,4.2-4.7v-6.2H1113.2z"/>
</g>
<g class="st1">
	<path class="st2" d="M1139,925.6v7.8h-1.9v-7.3c0-2.3-1.3-3.6-3.5-3.6c-2.6,0.1-4.1,2-4.1,4.7v6.2h-1.9v-7.3c0-2.3-1.3-3.6-3.5-3.6
		c-2.6,0.1-4.2,2-4.2,4.7v6.2h-1.8v-12.6h1.8v2.9c0.8-2,2.5-2.9,4.8-2.9c2.4,0,4,1.2,4.5,3.3c0.8-2.2,2.6-3.3,5-3.3
		C1137.2,920.7,1139,922.6,1139,925.6z"/>
</g>
<g class="st1">
	<path class="st2" d="M1151.4,917.2c0,0.7-0.5,1.3-1.2,1.3c-0.7,0-1.2-0.6-1.2-1.3c0-0.7,0.5-1.3,1.2-1.3
		C1150.9,915.9,1151.4,916.4,1151.4,917.2z M1151.1,920.8v12.6h-1.8v-12.6H1151.1z"/>
</g>
<g class="st1">
	<path class="st2" d="M1165.1,920.8v1.4l-7.9,9.6l8.1,0v1.6l-10.4,0V932l7.9-9.6l-7.7,0v-1.6H1165.1z"/>
</g>
<g class="st1">
	<path class="st2" d="M1171.1,917.2c0,0.7-0.5,1.3-1.2,1.3c-0.7,0-1.2-0.6-1.2-1.3c0-0.7,0.5-1.3,1.2-1.3
		C1170.6,915.9,1171.1,916.4,1171.1,917.2z M1170.8,920.8v12.6h-1.8v-12.6H1170.8z"/>
</g>
<g class="st1">
	<path class="st2" d="M1187.2,925.6v7.8h-1.9v-7.3c0-2.3-1.3-3.6-3.6-3.6c-2.5,0-4,1.7-4.2,4.1v6.8h-1.9v-12.6h1.9v2.8
		c0.9-1.9,2.6-2.8,4.9-2.9C1185.4,920.7,1187.2,922.6,1187.2,925.6z"/>
</g>
<g class="st1">
	<path class="st2" d="M1202.2,927l-2.7,2.8v3.6h-1.9v-17.8h1.9v11.7l6.5-6.6h2.2l-4.7,4.9l5.2,7.8h-2.2L1202.2,927z"/>
</g>
<g class="st1">
	<path class="st2" d="M1219.7,933.4v-2c-1,1.4-2.6,2-4.6,2c-2.6,0-4.3-1.7-4.3-3.8c0-2.2,1.8-3.6,4.7-3.6h4.2v-0.8
		c0-1.8-1.2-3-3.4-3c-1.4,0-2.7,0.5-4,1.5l-0.8-1.3c1.6-1.1,3-1.7,5.2-1.7c3.1,0,4.8,1.7,4.9,4.3l0,8.4H1219.7z M1219.7,929.1v-1.5
		h-3.9c-2.1,0-3.2,0.6-3.2,2.1c0,1.4,1.1,2.3,2.9,2.3C1217.5,931.9,1219.2,930.9,1219.7,929.1z"/>
</g>
<g class="st1">
	<path class="st2" d="M1238.9,927.1c0,3.7-2.4,6.4-6,6.4c-2.3,0-4-1-4.9-2.8v7.4h-1.9v-17.3h1.9v2.7c0.9-1.8,2.7-2.8,4.9-2.8
		C1236.4,920.7,1238.9,923.4,1238.9,927.1z M1237,927.1c0-2.7-1.9-4.8-4.5-4.8c-2.7,0-4.5,2-4.5,4.8c0,2.8,1.9,4.8,4.5,4.8
		C1235.1,931.8,1237,929.8,1237,927.1z"/>
</g>
<g class="st1">
	<path class="st2" d="M1250.5,933.4v-2c-1,1.4-2.6,2-4.6,2c-2.6,0-4.3-1.7-4.3-3.8c0-2.2,1.8-3.6,4.7-3.6h4.2v-0.8
		c0-1.8-1.2-3-3.4-3c-1.4,0-2.7,0.5-4,1.5l-0.8-1.3c1.6-1.1,3-1.7,5.2-1.7c3.1,0,4.8,1.7,4.9,4.3l0,8.4H1250.5z M1250.4,929.1v-1.5
		h-3.9c-2.1,0-3.2,0.6-3.2,2.1c0,1.4,1.1,2.3,2.9,2.3C1248.3,931.9,1250,930.9,1250.4,929.1z"/>
</g>
<g class="st1">
	<path class="st2" d="M1258.8,915.6v17.8h-1.9v-17.8H1258.8z"/>
</g>
<g class="st1">
	<path class="st2" d="M1271.7,917.2c0,0.7-0.5,1.3-1.2,1.3s-1.2-0.6-1.2-1.3c0-0.7,0.5-1.3,1.2-1.3S1271.7,916.4,1271.7,917.2z
		 M1271.4,920.8v12.6h-1.8v-12.6H1271.4z"/>
</g>
<g class="st1">
	<path class="st2" d="M1280.9,927l-2.7,2.8v3.6h-1.9v-17.8h1.9v11.7l6.5-6.6h2.2l-4.7,4.9l5.2,7.8h-2.2L1280.9,927z"/>
</g>
<g class="st1">
	<path class="st2" d="M1298.4,933.4v-2c-1,1.4-2.6,2-4.6,2c-2.6,0-4.3-1.7-4.3-3.8c0-2.2,1.8-3.6,4.7-3.6h4.2v-0.8
		c0-1.8-1.2-3-3.4-3c-1.4,0-2.7,0.5-4,1.5l-0.8-1.3c1.6-1.1,3-1.7,5.2-1.7c3.1,0,4.8,1.7,4.9,4.3l0,8.4H1298.4z M1298.4,929.1v-1.5
		h-3.9c-2.1,0-3.2,0.6-3.2,2.1c0,1.4,1.1,2.3,2.9,2.3C1296.3,931.9,1297.9,930.9,1298.4,929.1z"/>
</g>
<g class="st1">
	<path class="st2" d="M1316.3,925.6v7.8h-1.9v-7.3c0-2.3-1.3-3.6-3.6-3.6c-2.5,0-4,1.7-4.2,4.1v6.8h-1.9v-12.6h1.9v2.8
		c0.9-1.9,2.6-2.8,4.9-2.9C1314.5,920.7,1316.3,922.6,1316.3,925.6z"/>
</g>
<g class="st1">
	<path class="st2" d="M1334.4,933.4v-2c-1,1.4-2.6,2-4.6,2c-2.6,0-4.3-1.7-4.3-3.8c0-2.2,1.8-3.6,4.7-3.6h4.2v-0.8
		c0-1.8-1.2-3-3.4-3c-1.4,0-2.7,0.5-4,1.5l-0.8-1.3c1.6-1.1,3-1.7,5.2-1.7c3.1,0,4.8,1.7,4.9,4.3l0,8.4H1334.4z M1334.4,929.1v-1.5
		h-3.9c-2.1,0-3.2,0.6-3.2,2.1c0,1.4,1.1,2.3,2.9,2.3C1332.3,931.9,1333.9,930.9,1334.4,929.1z"/>
	<path class="st2" d="M1343.7,922.3c-1.4,0-2.5,0.5-2.5,1.7c0,2.9,7.1,1.4,7.1,5.9c0,2.5-2.2,3.6-4.6,3.6c-1.8,0-3.6-0.6-4.8-1.8
		l0.7-1.4c1.1,1,2.7,1.6,4.2,1.6s2.7-0.6,2.7-1.8c0.1-3.1-7-1.5-7-6c0-2.4,2.1-3.4,4.4-3.4c1.5,0,3,0.5,4,1.2l-0.7,1.4
		C1346.1,922.7,1344.9,922.3,1343.7,922.3z"/>
</g>
<g class="st1">
	<path class="st2" d="M1353.9,917.2c0,0.7-0.5,1.3-1.2,1.3s-1.2-0.6-1.2-1.3c0-0.7,0.5-1.3,1.2-1.3S1353.9,916.4,1353.9,917.2z
		 M1353.6,920.8v12.6h-1.8v-12.6H1353.6z"/>
</g>
<g class="st1">
	<path class="st2" d="M1370,925.6v7.8h-1.9v-7.3c0-2.3-1.3-3.6-3.6-3.6c-2.5,0-4,1.7-4.2,4.1v6.8h-1.9v-12.6h1.9v2.8
		c0.9-1.9,2.6-2.8,4.9-2.9C1368.2,920.7,1370,922.6,1370,925.6z"/>
</g>
<g class="st1">
	<path class="st2" d="M1385.5,920.8v11.3c0,3.7-2.5,6-6.4,6c-2,0-3.6-0.7-5.2-1.8l0.9-1.4c1.2,1,2.6,1.6,4.2,1.6
		c2.8,0,4.6-1.7,4.6-4.4v-1.9c-0.9,1.7-2.5,2.6-4.7,2.6c-3.4,0-5.8-2.5-5.8-6.1c0-3.6,2.3-6,5.7-6c2.2,0,3.8,1,4.7,2.6v-2.6H1385.5z
		 M1383.6,926.8c0-2.6-1.8-4.5-4.3-4.5c-2.5,0-4.3,1.9-4.3,4.5c0,2.6,1.8,4.5,4.3,4.5C1381.8,931.3,1383.6,929.4,1383.6,926.8z"/>
</g>
<line class="st7" x1="802.1" y1="238.8" x2="802.1" y2="904.7"/>
<g class="st1">
	<path class="st2" d="M990.8,157c0,6,1.5,11.6,4.2,15.6h-2.6c-2.8-4-4.3-9.5-4.3-15.6c0-6,1.5-11.6,4.3-15.6h2.6
		C992.4,145.5,990.8,151,990.8,157z"/>
</g>
<g class="st1">
	<path class="st2" d="M1003.3,168.2c-2.8,0-5.2-1.3-7-3.6l1.4-2.2c1.6,1.9,3.6,3,5.5,3c2.8,0,4.3-1.7,4.3-4.9v-14.9h-9v-2.7h11.9
		v17.7C1010.5,165.5,1007.8,168.2,1003.3,168.2z"/>
	<path class="st2" d="M1028.9,168.1v-3c-1.5,2.1-3.9,3.1-6.9,3.1c-3.9,0-6.4-2.5-6.4-5.7c0-3.3,2.6-5.4,7.1-5.4h6.2v-1.2
		c0-2.8-1.7-4.5-5.1-4.5c-2.1,0-4,0.8-6,2.2l-1.2-2c2.4-1.6,4.5-2.6,7.7-2.6c4.7,0,7.3,2.5,7.3,6.5l0,12.5H1028.9z M1028.9,161.6
		v-2.3h-5.9c-3.2,0-4.8,1-4.8,3.1c0,2.1,1.7,3.5,4.4,3.5C1025.7,165.9,1028.1,164.3,1028.9,161.6z"/>
</g>
<g class="st1">
	<path class="st2" d="M1070,156.5v11.7h-2.8v-10.9c0-3.4-2-5.4-5.3-5.4c-3.9,0.1-6.2,3-6.2,7.1v9.3h-2.8v-10.9
		c0-3.4-1.9-5.4-5.3-5.4c-3.9,0.1-6.2,3-6.2,7.1v9.3h-2.8v-18.9h2.8v4.3c1.3-3,3.8-4.4,7.2-4.4c3.6,0,6,1.8,6.8,4.9
		c1.2-3.3,3.9-4.9,7.5-4.9C1067.4,149.1,1070,151.9,1070,156.5z"/>
</g>
<g class="st1">
	<path class="st2" d="M1078,141.4c2.8,4,4.3,9.5,4.3,15.6c0,6-1.5,11.6-4.3,15.6h-2.6c2.6-4,4.2-9.5,4.2-15.6c0-6-1.5-11.6-4.2-15.6
		H1078z"/>
</g>
</svg>
